<?xml version="1.0" encoding="utf-8"?>
<!-- Generator: Adobe Illustrator 19.1.0, SVG Export Plug-In . SVG Version: 6.00 Build 0)  -->
<svg version="1.1" id="Capa_1" xmlns="http://www.w3.org/2000/svg" xmlns:xlink="http://www.w3.org/1999/xlink" x="0px" y="0px"
	 viewBox="0 0 39.2 36.7" enable-background="new 0 0 39.2 36.7" xml:space="preserve">
<g>
	<path fill="none" stroke="#FFFFFF" stroke-miterlimit="10" d="M19.6,35.3c9.4,0,17-7.6,17-17c0-9.4-7.6-17-17-17
		c-9.4,0-17,7.6-17,17C2.6,27.7,10.2,35.3,19.6,35.3"/>
	<path fill="#FFFFFF" d="M24.8,9.8H14.4c-1.8,0-3.3,1.5-3.3,3.3v3.5v7c0,1.8,1.5,3.3,3.3,3.3h10.4c1.8,0,3.3-1.5,3.3-3.3v-7v-3.5
		C28.1,11.3,26.6,9.8,24.8,9.8z M25.7,11.8l0.4,0v0.4v2.5l-2.9,0l0-2.9L25.7,11.8z M17.2,16.6c0.5-0.8,1.4-1.2,2.4-1.2
		c1,0,1.9,0.5,2.4,1.2c0.4,0.5,0.6,1.1,0.6,1.7c0,1.7-1.3,3-3,3s-3-1.3-3-3C16.6,17.7,16.8,17.1,17.2,16.6z M26.4,23.6
		c0,0.9-0.7,1.6-1.6,1.6H14.4c-0.9,0-1.6-0.7-1.6-1.6v-7h2.5c-0.2,0.5-0.3,1.1-0.3,1.7c0,2.6,2.1,4.7,4.7,4.7c2.6,0,4.7-2.1,4.7-4.7
		c0-0.6-0.1-1.2-0.3-1.7h2.5V23.6z"/>
</g>
</svg>
