<?xml version="1.0" encoding="utf-8"?>
<!-- Generator: Adobe Illustrator 19.1.0, SVG Export Plug-In . SVG Version: 6.00 Build 0)  -->
<svg version="1.1" id="Layer_1" xmlns="http://www.w3.org/2000/svg" xmlns:xlink="http://www.w3.org/1999/xlink" x="0px" y="0px"
	 viewBox="0 0 960 147" enable-background="new 0 0 960 147" xml:space="preserve">
<g>
	<g>
		<path fill="#FFFFFF" d="M274,100.9c-9.7,0-16.9-2.4-21.6-7.2c-4.7-4.8-7-12.2-7-22.2c0-10,2.3-17.5,6.9-22.3
			c4.6-4.8,11.5-7.2,20.8-7.2c1.8,0,3.8,0.1,5.9,0.3c2.2,0.2,4.6,0.5,7.4,0.9v10.6c-1.5-0.2-2.8-0.3-3.9-0.4
			c-1.1-0.1-2.2-0.2-3.1-0.3c-0.9-0.1-1.8-0.1-2.5-0.2c-0.7-0.1-1.5-0.1-2.2-0.1c-3,0-5.5,0.3-7.5,0.9c-2,0.6-3.7,1.6-4.9,3.1
			c-1.2,1.4-2.1,3.4-2.6,5.8c-0.5,2.4-0.8,5.4-0.8,9c0,3.5,0.3,6.5,0.8,8.9c0.5,2.4,1.4,4.3,2.6,5.7c1.2,1.4,2.8,2.5,4.8,3.1
			c2,0.6,4.4,0.9,7.3,0.9c0.8,0,1.8,0,2.9-0.1c1.1-0.1,2.2-0.1,3.3-0.3c1.1-0.1,2.2-0.3,3.2-0.4c1-0.1,1.9-0.3,2.6-0.4v10.5
			c-1.9,0.4-3.9,0.8-6.1,1C278.1,100.8,276,100.9,274,100.9z"/>
		<path fill="#FFFFFF" d="M289.1,99.3l18.7-56.4h19.6l18.7,56.4v0.7h-12.7l-4.6-13.7h-22.6l-4.5,13.7h-12.7V99.3z M325.9,76
			l-4.2-12.8L318.1,52H317l-3.4,11.3L309.4,76H325.9z"/>
		<path fill="#FFFFFF" d="M375.1,80.9c-0.9,0.1-1.8,0.1-2.7,0.1c-1,0-1.9,0-2.9,0c-0.2,0-0.5,0-0.9,0c-0.4,0-0.8,0-1.3,0
			c-0.5,0-0.9-0.1-1.3-0.1c-0.4,0-0.8,0-1,0v19h-13.2V43.3c5.9-0.8,11.6-1.2,17-1.2c5.1,0,9.6,0.4,13.3,1.1c3.7,0.7,6.7,1.9,9.1,3.5
			c2.4,1.6,4.2,3.6,5.3,6.1c1.1,2.4,1.7,5.4,1.7,8.8c0,8.3-3.8,14-11.4,16.9l13.9,21.4h-14.7L375.1,80.9z M371.3,71
			c2.5,0,4.6-0.2,6.4-0.5c1.7-0.3,3.1-0.8,4.2-1.6c1.1-0.7,1.8-1.7,2.3-2.9c0.5-1.2,0.7-2.6,0.7-4.4c0-1.7-0.2-3.1-0.7-4.3
			c-0.4-1.2-1.2-2.1-2.2-2.9c-1.1-0.7-2.4-1.3-4.1-1.6c-1.7-0.3-3.7-0.5-6.2-0.5c-1,0-2.1,0.1-3.4,0.2c-1.3,0.1-2.4,0.2-3.3,0.3
			v17.6c0.6,0.2,1.5,0.3,2.5,0.4S369.8,71,371.3,71z"/>
		<path fill="#FFFFFF" d="M431.9,100.7c-9,0-15.8-2.5-20.5-7.4c-4.7-4.9-7-12.2-7-21.8c0-9.7,2.3-17,7-22c4.7-4.9,11.5-7.4,20.5-7.4
			c8.9,0,15.8,2.5,20.5,7.4c4.7,5,7.1,12.3,7.1,21.9c0,9.6-2.4,16.9-7.1,21.8C447.7,98.3,440.9,100.7,431.9,100.7z M431.9,90.2
			c2.6,0,4.8-0.3,6.6-1c1.8-0.6,3.3-1.7,4.4-3.2c1.1-1.5,1.9-3.4,2.4-5.7c0.5-2.4,0.8-5.3,0.8-8.8c0-3.4-0.3-6.4-0.8-8.8
			c-0.5-2.4-1.4-4.3-2.5-5.8c-1.1-1.5-2.6-2.6-4.4-3.2c-1.8-0.7-3.9-1-6.4-1c-2.5,0-4.7,0.3-6.5,1c-1.8,0.7-3.3,1.7-4.4,3.2
			c-1.1,1.5-2,3.4-2.5,5.8c-0.5,2.4-0.8,5.3-0.8,8.8c0,3.5,0.3,6.4,0.8,8.8c0.5,2.4,1.3,4.3,2.4,5.7c1.1,1.5,2.6,2.5,4.4,3.2
			C427.1,89.9,429.3,90.2,431.9,90.2z"/>
		<path fill="#FFFFFF" d="M468,42.9h13.2v46.9h24.4V100H468V42.9z"/>
		<path fill="#FFFFFF" d="M512.2,42.9h13.2V100h-13.2V42.9z"/>
		<path fill="#FFFFFF" d="M536.5,42.9h10.6l24.2,31l4.5,6.6h0.7V42.9H588V100h-10.6l-23.8-30.5l-5-7h-0.6V100h-11.6V42.9z"/>
		<path fill="#FFFFFF" d="M593.6,99.3l18.7-56.4h19.6l18.7,56.4v0.7h-12.7l-4.5-13.7h-22.6l-4.5,13.7h-12.7V99.3z M630.3,76
			l-4.2-12.8L622.6,52h-1.2l-3.4,11.3L613.8,76H630.3z"/>
		<path fill="#FFFFFF" d="M663,99.3l18.7-56.4h19.6L720,99.3v0.7h-12.7l-4.5-13.7h-22.6l-4.5,13.7H663V99.3z M699.8,76l-4.2-12.8
			L692,52h-1.2l-3.4,11.3L683.3,76H699.8z"/>
		<path fill="#FFFFFF" d="M725.6,42.9h41.3v10.3h-28.2v13h25.6v10.3h-25.6v13.3h28.8V100h-42V42.9z"/>
		<path fill="#FFFFFF" d="M799.7,80.9c-0.9,0.1-1.8,0.1-2.7,0.1c-1,0-1.9,0-2.9,0c-0.2,0-0.5,0-0.9,0c-0.4,0-0.8,0-1.3,0
			c-0.5,0-0.9-0.1-1.4-0.1c-0.4,0-0.8,0-1,0v19h-13.2V43.3c5.9-0.8,11.6-1.2,17-1.2c5.1,0,9.6,0.4,13.3,1.1c3.7,0.7,6.7,1.9,9.1,3.5
			c2.4,1.6,4.2,3.6,5.3,6.1c1.1,2.4,1.7,5.4,1.7,8.8c0,8.3-3.8,14-11.4,16.9l13.9,21.4h-14.7L799.7,80.9z M795.9,71
			c2.5,0,4.6-0.2,6.4-0.5c1.7-0.3,3.1-0.8,4.2-1.6c1.1-0.7,1.8-1.7,2.3-2.9c0.5-1.2,0.7-2.6,0.7-4.4c0-1.7-0.2-3.1-0.7-4.3
			c-0.4-1.2-1.2-2.1-2.2-2.9c-1.1-0.7-2.4-1.3-4.1-1.6c-1.7-0.3-3.7-0.5-6.2-0.5c-1,0-2.1,0.1-3.4,0.2c-1.3,0.1-2.4,0.2-3.3,0.3
			v17.6c0.6,0.2,1.5,0.3,2.5,0.4C793.1,70.9,794.4,71,795.9,71z"/>
		<path fill="#FFFFFF" d="M831.5,42.9h13.2V100h-13.2V42.9z"/>
		<path fill="#FFFFFF" d="M850.2,99.3L869,42.9h19.6l18.7,56.4v0.7h-12.7L890,86.2h-22.6L863,100h-12.7V99.3z M887,76l-4.2-12.8
			L879.3,52h-1.2l-3.4,11.3L870.5,76H887z"/>
		<path fill="#FFFFFF" d="M912.9,42.9H926v46.9h24.4V100h-37.6V42.9z"/>
	</g>
</g>
<g>
	<path fill="#E5A810" d="M104.9,76.2c0.3,0.3,0.6,0.6,0.9,0.9c39.6,36.1,81.5,23,111.3-0.4l0,0c-33.7,18-67.3,19.1-96.4-8.4
		c-1.2-1.1-2.7-2.9-4.2-4.7c-2-7.5-5.9-14.4-11.5-20c-8.3-8.3-19.4-12.9-31.1-12.9C62,30.9,51,35.5,42.7,43.8
		c-8.3,8.3-12.9,19.4-12.9,31.1c0,11.8,4.6,22.8,12.9,31.1s19.4,12.9,31.1,12.9l0.1,0c9.6,0,18.6-3,26.2-8.7c1.5-1.1,3-2.4,4.4-3.7
		l0,0l0.7-0.7c0,0,0,0,0,0l0.9-0.9l0,0c3.1-3.4,5.7-7.2,7.6-11.5l0.4-0.9l-0.8-0.6c-3.1-2.3-6-4.9-8.7-7.7l-1.5-1.5l-0.7,2
		c-1.5,4.5-3.9,8.4-7.2,11.8c-5.7,5.7-13.3,8.9-21.5,8.9c-8.1,0-15.7-3.2-21.5-8.9c-5.7-5.7-8.9-13.3-8.9-21.5
		c0-8.1,3.2-15.7,8.9-21.5c5.7-5.7,13.4-8.9,21.5-8.9s15.7,3.2,21.5,8.9c5.7,5.7,8.9,13.3,8.9,21.5v0.5L104.9,76.2z"/>
	<path fill="#FFFFFF" d="M217,78.4c-24.2,23.8-51.5,35.1-85.9,23.2c-2.6-0.9-5-2.1-7.4-3.3c-0.8-0.4-1.6-0.9-2.5-1.3l-1.2-0.7
		l-0.6,1.2c-0.8,1.7-1.8,3.4-3,5.2l-0.1,0.1c-0.3,0.4-0.5,0.8-0.8,1.2c-0.2,0.3-0.4,0.5-0.6,0.8l-0.4,0.6c-0.3,0.5-0.7,0.9-1.1,1.4
		l-0.1,0.1c-1.3,1.5-2.6,3-4,4.4c-0.4,0.4-0.8,0.8-1.3,1.2c-0.5,0.4-1,0.9-1.5,1.3l-0.3,0.3c-0.1,0.1-0.3,0.2-0.4,0.3
		c-0.8,0.7-1.6,1.3-2.5,1.9l-0.2,0.1c-1.8,1.3-3.7,2.5-5.7,3.5c-3.7,2-7.6,3.5-11.7,4.5c-0.2,0-0.3,0.1-0.5,0.1l-0.4,0.1
		c-0.5,0.1-0.9,0.2-1.4,0.3c-3.3,0.6-6.6,1-9.9,1c-2,0-4.1-0.1-6.3-0.4c-3-0.4-5.9-1-8.7-1.9c-17-5.2-29.9-18.7-34.4-36l-0.1-0.3
		c-0.1-0.3-0.1-0.5-0.2-0.8L24,85.7c-0.1-0.3-0.2-0.7-0.2-1.1l0-0.1c-1.5-8-1.1-16.3,1.1-24l0.1-0.2c0.2-0.6,0.4-1.3,0.6-1.9
		l0.2-0.5c0.2-0.6,0.4-1.1,0.6-1.7l0.1-0.2c0-0.1,0.1-0.3,0.2-0.4c0.2-0.6,0.5-1.2,0.8-1.8l0.2-0.4c0.3-0.7,0.7-1.4,1-2.1l-1.1-0.6
		l1.2,0.5c2.4-4.5,5.4-8.7,9.1-12.3c1.9-1.9,4.1-3.8,6.4-5.4c1.9-1.3,3.8-2.6,5.8-3.6c3-1.6,6.1-2.8,9.2-3.8
		c0.4-0.1,0.9-0.2,1.3-0.4l0.5-0.1c0.1,0,0.3-0.1,0.4-0.1c4.7-1.2,9.7-1.7,14.6-1.5c0.9,0,1.7,0.1,2.5,0.2c0.5,0,0.9,0.1,1.3,0.2
		l0.1,0c1,0.1,1.7,0.2,2.4,0.4l0.5,0.1c2,0.4,4,0.9,5.8,1.4l0.8,0.2c7.6,2.5,14.6,6.8,20.3,12.5l0.9,0.9l9.7-9.7l-0.9-0.9
		c-8.9-8.9-20.1-15-32.4-17.5l0,0l-1.5-0.3c-0.1,0-0.2,0-0.4-0.1l-0.3,0v0l-0.1,0c-1-0.2-2.1-0.3-3.2-0.5L81,10.7
		c-0.5-0.1-1-0.1-1.5-0.2l-0.9-0.1l0,0c-7-0.5-13.9,0-20.6,1.7c-0.3,0.1-0.6,0.2-1,0.3l-0.9,0.3c-0.3,0.1-0.6,0.2-0.9,0.3
		c-6.8,2-13.2,5.2-19.1,9.4c-8.3,5.9-14.9,13.5-19.6,22.5L16.5,45c-0.5,0.9-0.9,1.7-1.2,2.5c-0.1,0.1-0.1,0.3-0.2,0.4l-0.1,0.2
		c-0.3,0.7-0.6,1.4-0.9,2.2c-0.1,0.2-0.2,0.4-0.2,0.6l-0.1,0.3c-0.3,0.7-0.5,1.4-0.8,2.1c-0.1,0.2-0.1,0.3-0.2,0.5l-0.2,0.7
		c-0.2,0.4-0.3,0.9-0.4,1.3c0,0.1-0.1,0.2-0.1,0.3l-0.1,0.5c-2.9,9.9-3.4,20.4-1.4,30.4l0,0.1c0.1,0.6,0.2,1.1,0.4,1.7l0.1,0.5
		c0.1,0.4,0.2,0.7,0.2,1.1l0.1,0.5c2.9,11.2,8.7,21.4,16.9,29.6c0.6,0.6,1.2,1.1,1.7,1.7l0.1,0.1c0.7,0.6,1.4,1.3,2.3,2l0.1,0.1
		c9.5,8,21,13,33.3,14.6c2.8,0.4,5.5,0.5,8.3,0.5c4.2,0,8.4-0.4,12.5-1.2c0.3-0.1,0.7-0.1,1-0.2l0.9-0.2c0.3-0.1,0.7-0.1,1-0.2
		c7.9-1.9,15.3-5.3,22-10.1l0.4-0.3c1.2-0.8,2.2-1.6,3.1-2.4c0.3-0.3,0.7-0.6,1-0.8l0.7-0.6c0.3-0.3,0.7-0.6,1-0.9
		c0.6-0.6,1.2-1.2,1.8-1.7l1.2-1.2l0,0c1.1-1.1,2.2-2.4,3.3-3.8C153.4,124.2,184.6,120.8,217,78.4L217,78.4z"/>
</g>
</svg>
